<svg width="6" height="9" viewBox="0 0 6 9" fill="none" xmlns="http://www.w3.org/2000/svg">
<path d="M5.17 0V1.44H1.71001L1.50999 3.16C1.99999 2.97 2.46 2.87 2.89 2.87C4.56 2.87 5.40001 3.67 5.40001 5.26C5.40001 6.16 5.17001 6.85 4.71001 7.34C4.25001 7.83 3.6 8.07 2.75 8.07C2.39 8.07 1.98 8.03 1.52 7.96C1.06 7.89 0.699998 7.81 0.419998 7.73L0 7.62L0.180008 6.4C1.13001 6.55 1.92 6.63 2.55 6.63C2.93 6.63 3.23001 6.53 3.43001 6.32C3.63001 6.11 3.74001 5.81 3.74001 5.43C3.74001 5.05 3.65 4.76 3.48 4.58C3.31 4.4 3.07 4.32 2.75 4.32C2.23 4.32 1.76 4.37 1.37 4.48L1.19 4.53L0.229996 4.3L0.440002 0.0200005H5.17V0Z" fill="#9E9EAF"/>
</svg>
