<svg width="25" height="21" viewBox="0 0 25 21" fill="none" xmlns="http://www.w3.org/2000/svg">
<path d="M10.08 9.21C10.08 9.01 9.99999 8.81 9.84999 8.65C9.53999 8.34 9.03999 8.34 8.73999 8.65L5.49999 11.89L2.25998 8.65C1.94998 8.34 1.44998 8.34 1.14998 8.65C0.83998 8.96 0.83998 9.46 1.14998 9.76L4.94998 13.56C5.09998 13.71 5.29998 13.79 5.50998 13.79C5.71998 13.79 5.91999 13.71 6.06999 13.56L9.86998 9.76C10.02 9.61 10.1 9.4 10.1 9.2L10.08 9.21Z" fill="#9E9EAF"/>
<path d="M24.2299 10.57C24.2299 5.19 19.85 0.809998 14.47 0.809998C9.08996 0.809998 4.70996 5.19 4.70996 10.57V12.84C4.70996 13.27 5.05995 13.63 5.49995 13.63C5.93995 13.63 6.28995 13.28 6.28995 12.84V10.57C6.28995 6.05 9.95995 2.38 14.4799 2.38C19 2.38 22.67 6.05 22.67 10.57C22.67 15.09 19 18.76 14.4799 18.76C14.0499 18.76 13.69 19.11 13.69 19.55C13.69 19.98 14.04 20.34 14.4799 20.34C19.86 20.34 24.24 15.96 24.24 10.58L24.2299 10.57Z" fill="#9E9EAF"/>
</svg>
