<svg width="24" height="21" viewBox="0 0 24 21" fill="none" xmlns="http://www.w3.org/2000/svg">
<path d="M14.4601 9.21C14.4601 9.01 14.5401 8.81 14.6901 8.65C15.0001 8.34 15.5 8.34 15.8 8.65L19.0401 11.89L22.2801 8.65C22.5901 8.34 23.0901 8.34 23.3901 8.65C23.7001 8.96 23.7001 9.46 23.3901 9.76L19.5901 13.56C19.4401 13.71 19.2401 13.79 19.0301 13.79C18.8201 13.79 18.6201 13.71 18.4701 13.56L14.6701 9.76C14.5201 9.61 14.4401 9.4 14.4401 9.2L14.4601 9.21Z" fill="#9E9EAF"/>
<path d="M0.310059 10.57C0.310059 5.19 4.69007 0.809998 10.0701 0.809998C15.4501 0.809998 19.83 5.19 19.83 10.57V12.84C19.83 13.27 19.4801 13.63 19.0401 13.63C18.6001 13.63 18.2501 13.28 18.2501 12.84V10.57C18.2501 6.05 14.5801 2.38 10.0601 2.38C5.54006 2.38 1.87006 6.05 1.87006 10.57C1.87006 15.09 5.54006 18.76 10.0601 18.76C10.4901 18.76 10.8501 19.11 10.8501 19.55C10.8501 19.99 10.5001 20.34 10.0601 20.34C4.68006 20.34 0.300049 15.96 0.300049 10.58L0.310059 10.57Z" fill="#9E9EAF"/>
</svg>
