<svg width="391" height="68" viewBox="0 0 391 68" fill="none" xmlns="http://www.w3.org/2000/svg">
<path fill-rule="evenodd" clip-rule="evenodd" d="M5.07007 1C3.14007 1 1.57007 2.57 1.57007 4.5V62.99C1.57007 64.92 3.14007 66.49 5.07007 66.49H386.07C388 66.49 389.57 64.92 389.57 62.99V4.5C389.57 2.57 388 1 386.07 1H376.39V0H386.07C388.56 0 390.57 2.02 390.57 4.5V62.99C390.57 65.48 388.56 67.49 386.07 67.49H5.07007C2.58007 67.49 0.570068 65.48 0.570068 62.99V4.5C0.570068 2.02 2.58007 0 5.07007 0H15.9401V1H5.07007Z" fill="black"/>
</svg>
