<svg width="391" height="80" viewBox="0 0 391 80" fill="none" xmlns="http://www.w3.org/2000/svg">
<path fill-rule="evenodd" clip-rule="evenodd" d="M5.07007 13C3.14007 13 1.57007 14.57 1.57007 16.5V74.99C1.57007 76.92 3.14007 78.49 5.07007 78.49H386.07C388 78.49 389.57 76.92 389.57 74.99V16.5C389.57 14.57 388 13 386.07 13H376.39V12H386.07C388.56 12 390.57 14.02 390.57 16.5V74.99C390.57 77.48 388.56 79.49 386.07 79.49H5.07007C2.58007 79.49 0.570068 77.48 0.570068 74.99V16.5C0.570068 14.02 2.58007 12 5.07007 12H15.9401V13H5.07007Z" fill="black"/>
<path d="M54.5901 12.5H376.26" stroke="black"/>
<path d="M20.19 16V6.312H26.084V7.264H21.268V10.61H25.244V11.548H21.268V15.048H26.084V16H20.19ZM28.7963 16H27.7463V9H28.7823V9.49C29.4823 9.07 30.1636 8.86 30.8263 8.86C31.6943 8.86 32.3009 9.098 32.6463 9.574C32.9543 9.38733 33.3509 9.224 33.8363 9.084C34.3309 8.93467 34.7649 8.86 35.1383 8.86C36.0716 8.86 36.6969 9.112 37.0143 9.616C37.3409 10.1107 37.5043 11.0067 37.5043 12.304V16H36.4543V12.332C36.4543 11.3613 36.3609 10.6987 36.1743 10.344C35.9876 9.98 35.5909 9.798 34.9843 9.798C34.6763 9.798 34.3589 9.84467 34.0323 9.938C33.7056 10.022 33.4536 10.106 33.2763 10.19L33.0103 10.316C33.1316 10.624 33.1923 11.3053 33.1923 12.36V16H32.1423V12.388C32.1423 11.38 32.0489 10.6987 31.8623 10.344C31.6849 9.98 31.2883 9.798 30.6723 9.798C30.3736 9.798 30.0656 9.84467 29.7483 9.938C29.4403 10.022 29.2023 10.106 29.0343 10.19L28.7963 10.316V16ZM44.3914 11.114V14.698C44.4194 15.0433 44.6901 15.2487 45.2034 15.314L45.1614 16.14C44.4241 16.14 43.8687 15.9533 43.4954 15.58C42.6554 15.9533 41.8154 16.14 40.9754 16.14C40.3314 16.14 39.8414 15.958 39.5054 15.594C39.1694 15.23 39.0014 14.7073 39.0014 14.026C39.0014 13.3447 39.1741 12.8453 39.5194 12.528C39.8647 12.2013 40.4061 12.0007 41.1434 11.926L43.3414 11.716V11.114C43.3414 10.638 43.2387 10.2973 43.0334 10.092C42.8281 9.88667 42.5481 9.784 42.1934 9.784C41.4467 9.784 40.6721 9.83067 39.8694 9.924L39.4354 9.966L39.3934 9.168C40.4201 8.96267 41.3301 8.86 42.1234 8.86C42.9167 8.86 43.4907 9.042 43.8454 9.406C44.2094 9.77 44.3914 10.3393 44.3914 11.114ZM40.0794 13.97C40.0794 14.8287 40.4341 15.258 41.1434 15.258C41.7781 15.258 42.4034 15.1507 43.0194 14.936L43.3414 14.824V12.514L41.2694 12.71C40.8494 12.7473 40.5461 12.8687 40.3594 13.074C40.1727 13.2793 40.0794 13.578 40.0794 13.97ZM46.4631 16V9H47.5131V16H46.4631ZM46.4631 7.418V6.2H47.5131V7.418H46.4631ZM49.6096 16V5.948H50.6596V16H49.6096Z" fill="#353535"/>
</svg>
