<svg width="164" height="164" viewBox="0 0 164 164" fill="none" xmlns="http://www.w3.org/2000/svg">
<g clip-path="url(#clip0_19_177)">
<path fill-rule="evenodd" clip-rule="evenodd" d="M81.88 153.02C121.06 153.02 153.02 121.06 153.02 81.87C153.02 42.68 121.06 10.73 81.88 10.73C42.7 10.73 10.73 42.69 10.73 81.87C10.73 121.05 42.69 153.02 81.88 153.02Z" fill="#42D8E9"/>
<path d="M101.62 82.03C101.62 81.11 102.37 80.36 103.29 80.36C104.21 80.36 104.96 81.11 104.96 82.03V87.52C104.96 93.87 102.36 99.64 98.18 103.82C94.37 107.64 89.24 110.13 83.55 110.54V119.62H95.31C96.23 119.62 96.98 120.37 96.98 121.29C96.98 122.21 96.24 122.96 95.31 122.96H68.45C67.53 122.96 66.78 122.21 66.78 121.29C66.78 120.37 67.53 119.62 68.45 119.62H80.21V110.54C74.52 110.13 69.39 107.64 65.57 103.82C61.39 99.64 58.79 93.87 58.79 87.52V82.03C58.79 81.11 59.54 80.36 60.46 80.36C61.38 80.36 62.13 81.11 62.13 82.03V87.52C62.13 92.95 64.35 97.88 67.93 101.46C71.51 105.04 76.45 107.26 81.87 107.26C87.29 107.26 92.24 105.04 95.81 101.46C99.39 97.88 101.61 92.94 101.61 87.52V82.03H101.62Z" fill="white"/>
<path d="M81.87 44.78C88.15 44.78 93.45 49.66 93.98 55.9L94.03 59.08V87.52C94.03 94.22 88.57 99.68 81.87 99.68C75.17 99.68 69.71 94.23 69.71 87.52V59.07L69.75 55.89C70.28 49.65 75.58 44.77 81.86 44.77M81.86 40.77C73.38 40.77 66.38 47.38 65.75 55.7L65.7 59.04V87.51C65.7 96.4 72.97 103.67 81.86 103.67C90.75 103.67 98.02 96.4 98.02 87.51V59.04L97.97 55.7C97.34 47.38 90.33 40.77 81.86 40.77Z" fill="white"/>
<g opacity="0.66">
<path d="M81.87 3C125.36 3 160.74 38.38 160.74 81.87C160.74 125.36 125.36 160.74 81.87 160.74C38.38 160.74 3 125.36 3 81.87C3 38.38 38.38 3 81.87 3ZM81.87 0C36.66 0 0 36.66 0 81.87C0 127.08 36.66 163.74 81.87 163.74C127.08 163.74 163.74 127.08 163.74 81.87C163.74 36.66 127.09 0 81.87 0Z" fill="#42D8E9"/>
</g>
</g>
<defs>
<clipPath id="clip0_19_177">
<rect width="163.75" height="163.75" fill="white"/>
</clipPath>
</defs>
</svg>
