<svg width="21" height="23" viewBox="0 0 21 23" fill="none" xmlns="http://www.w3.org/2000/svg">
<path d="M2.38004 22.83C2.11004 22.83 1.83002 22.76 1.58002 22.61C1.08002 22.32 0.780029 21.8 0.780029 21.23V1.92001C0.780029 1.34001 1.08002 0.82001 1.58002 0.54001C2.08002 0.25001 2.68002 0.25001 3.18002 0.54001L19.9 10.2C20.4 10.49 20.7 11.01 20.7 11.58C20.7 12.15 20.4 12.68 19.9 12.96L3.18002 22.62C2.93002 22.76 2.66004 22.84 2.38004 22.84V22.83ZM2.38004 1.89001C2.38004 1.89001 2.38003 1.89001 2.37003 1.89001C2.36003 1.89001 2.36002 1.90001 2.36002 1.91001V21.22C2.36002 21.22 2.36003 21.24 2.37003 21.24C2.38003 21.24 2.39002 21.24 2.40002 21.24L19.12 11.58C19.12 11.58 19.13 11.58 19.13 11.56C19.13 11.54 19.13 11.54 19.12 11.54L2.40002 1.88001C2.40002 1.88001 2.40005 1.88001 2.39005 1.88001L2.38004 1.89001Z" fill="#353535"/>
</svg>
