<svg width="52" height="45" viewBox="0 0 52 45" fill="none" xmlns="http://www.w3.org/2000/svg">
<path d="M48.4801 36.98C49.9801 36.75 51.3801 37.78 51.6101 39.28C51.8401 40.78 50.8101 42.19 49.3101 42.42L38.3101 44.1C36.9001 44.32 35.5601 43.42 35.2201 42.03L32.4701 30.72C32.1101 29.24 33.0201 27.76 34.4901 27.4C35.9701 27.04 37.4501 27.95 37.8101 29.42L39.1101 34.76C44.5001 27.35 43.9401 17.14 37.5401 10.74C30.4301 3.63 18.6301 3.72 11.1801 11.17C3.73008 18.62 3.64008 30.42 10.7501 37.53C11.8201 38.6 11.8201 40.35 10.7501 41.42C9.68008 42.49 7.93008 42.49 6.86008 41.42C-2.49992 32.07 -2.20992 16.78 7.29008 7.29C16.7801 -2.2 32.0701 -2.5 41.4301 6.86C49.7701 15.2 50.4401 28.24 43.7801 37.7L48.4801 36.98Z" fill="#4931E8"/>
</svg>
