<svg width="184" height="56" viewBox="0 0 184 56" fill="none" xmlns="http://www.w3.org/2000/svg">
<g clip-path="url(#clip0_68_169)">
<path d="M155.67 0.5H27.97C12.7987 0.5 0.5 12.7987 0.5 27.97C0.5 43.1413 12.7987 55.44 27.97 55.44H155.67C170.841 55.44 183.14 43.1413 183.14 27.97C183.14 12.7987 170.841 0.5 155.67 0.5Z" stroke="#42D8E9" stroke-miterlimit="10"/>
<path d="M73.3899 36H67.4619V19.392H73.3899C76.0939 19.392 77.8859 20.464 78.7659 22.608C79.2779 23.84 79.5339 25.456 79.5339 27.456C79.5339 31.632 78.4939 34.264 76.4139 35.352C75.5819 35.784 74.5739 36 73.3899 36ZM77.6379 27.456C77.6379 24.272 76.9259 22.288 75.5019 21.504C74.9259 21.184 74.2219 21.024 73.3899 21.024H69.3099V34.368H73.3899C76.2219 34.368 77.6379 32.064 77.6379 27.456ZM82.0906 29.976C82.0906 27.784 82.4826 26.2 83.2666 25.224C84.0506 24.248 85.3706 23.76 87.2266 23.76C89.0986 23.76 90.4186 24.248 91.1866 25.224C91.9706 26.2 92.3626 27.784 92.3626 29.976C92.3626 32.168 91.9946 33.76 91.2586 34.752C90.5226 35.744 89.1786 36.24 87.2266 36.24C85.2746 36.24 83.9306 35.744 83.1946 34.752C82.4586 33.76 82.0906 32.168 82.0906 29.976ZM83.9386 29.952C83.9386 31.696 84.1466 32.92 84.5626 33.624C84.9946 34.328 85.8826 34.68 87.2266 34.68C88.5866 34.68 89.4746 34.336 89.8906 33.648C90.3066 32.944 90.5146 31.712 90.5146 29.952C90.5146 28.192 90.2826 26.984 89.8186 26.328C89.3546 25.656 88.4906 25.32 87.2266 25.32C85.9786 25.32 85.1146 25.656 84.6346 26.328C84.1706 26.984 83.9386 28.192 83.9386 29.952ZM97.0983 36H95.2983V24H97.0743V24.84C98.3703 24.12 99.6103 23.76 100.794 23.76C102.394 23.76 103.466 24.192 104.01 25.056C104.57 25.92 104.85 27.456 104.85 29.664V36H103.074V29.712C103.074 28.048 102.906 26.912 102.57 26.304C102.25 25.68 101.554 25.368 100.482 25.368C99.9703 25.368 99.4263 25.448 98.8503 25.608C98.2903 25.752 97.8583 25.896 97.5543 26.04L97.0983 26.256V36ZM116.349 34.512L117.045 34.44L117.093 35.856C115.269 36.112 113.709 36.24 112.413 36.24C110.685 36.24 109.461 35.744 108.741 34.752C108.021 33.744 107.661 32.184 107.661 30.072C107.661 25.864 109.333 23.76 112.677 23.76C114.293 23.76 115.501 24.216 116.301 25.128C117.101 26.024 117.501 27.44 117.501 29.376L117.405 30.744H109.485C109.485 32.072 109.725 33.056 110.205 33.696C110.685 34.336 111.517 34.656 112.701 34.656C113.901 34.656 115.117 34.608 116.349 34.512ZM115.701 29.304C115.701 27.832 115.461 26.792 114.981 26.184C114.517 25.576 113.749 25.272 112.677 25.272C111.621 25.272 110.821 25.592 110.277 26.232C109.749 26.872 109.477 27.896 109.461 29.304H115.701Z" fill="#00C9D3"/>
</g>
<defs>
<clipPath id="clip0_68_169">
<rect width="183.64" height="55.94" fill="white"/>
</clipPath>
</defs>
</svg>
