<svg width="218" height="218" viewBox="0 0 218 218" fill="none" xmlns="http://www.w3.org/2000/svg">
<g clip-path="url(#clip0_1_5)">
<path fill-rule="evenodd" clip-rule="evenodd" d="M108.59 179.73C147.77 179.73 179.73 147.77 179.73 108.58C179.73 69.39 147.77 37.43 108.59 37.43C69.41 37.43 37.44 69.4 37.44 108.59C37.44 147.78 69.4 179.74 108.59 179.74V179.73Z" fill="#42D8E9"/>
<g opacity="0.66">
<path d="M108.59 29.71C152.08 29.71 187.46 65.09 187.46 108.58C187.46 152.07 152.08 187.45 108.59 187.45C65.1 187.45 29.71 152.08 29.71 108.59C29.71 65.1 65.1 29.71 108.59 29.71ZM108.59 26.71C63.37 26.71 26.72 63.37 26.72 108.58C26.72 153.79 63.38 190.45 108.59 190.45C153.8 190.45 190.46 153.79 190.46 108.58C190.46 63.37 153.8 26.71 108.59 26.71Z" fill="#42D8E9"/>
</g>
<g opacity="0.46">
<path d="M108.59 16.36C159.45 16.36 200.82 57.73 200.82 108.59C200.82 159.45 159.45 200.82 108.59 200.82C57.73 200.82 16.36 159.44 16.36 108.59C16.36 57.74 57.73 16.36 108.59 16.36ZM108.59 13.36C55.99 13.36 13.36 55.99 13.36 108.59C13.36 161.19 56 203.82 108.59 203.82C161.18 203.82 203.82 161.18 203.82 108.59C203.82 56 161.18 13.36 108.59 13.36Z" fill="#42D8E9"/>
</g>
<g opacity="0.21">
<path d="M108.59 3C166.81 3 214.18 50.37 214.18 108.59C214.18 166.81 166.81 214.18 108.59 214.18C50.37 214.18 3 166.81 3 108.59C3 50.37 50.37 3 108.59 3ZM108.59 0C48.62 0 0 48.62 0 108.59C0 168.56 48.62 217.18 108.59 217.18C168.56 217.18 217.18 168.56 217.18 108.59C217.18 48.62 168.56 0 108.59 0Z" fill="#42D8E9"/>
</g>
<path d="M96.2673 74.4411H85.4283C82.1216 74.4411 79.441 77.1218 79.441 80.4286V127.571C79.441 130.878 82.1216 133.559 85.4283 133.559H96.2673C99.574 133.559 102.255 130.878 102.255 127.571V80.4286C102.255 77.1218 99.574 74.4411 96.2673 74.4411Z" stroke="white" stroke-width="4" stroke-linejoin="round"/>
<path d="M131.537 74.4411H120.698C117.392 74.4411 114.711 77.1218 114.711 80.4286V127.571C114.711 130.878 117.392 133.559 120.698 133.559H131.537C134.844 133.559 137.525 130.878 137.525 127.571V80.4286C137.525 77.1218 134.844 74.4411 131.537 74.4411Z" stroke="white" stroke-width="4" stroke-linejoin="round"/>
</g>
<defs>
<clipPath id="clip0_1_5">
<rect width="217.17" height="217.17" fill="white"/>
</clipPath>
</defs>
</svg>
