<svg width="120" height="33" viewBox="0 0 120 33" fill="none" xmlns="http://www.w3.org/2000/svg">
<path d="M11.5601 6.61998C8.3201 6.61998 6.71011 7.68998 6.71011 9.82998C6.71011 10.78 7.11011 11.51 7.91011 12.01C8.71011 12.51 10.5901 13.24 13.5401 14.19C16.4901 15.14 18.5601 16.22 19.7501 17.42C20.9401 18.62 21.5301 20.47 21.5301 22.96C21.5301 26.14 20.5601 28.54 18.6401 30.17C16.7101 31.8 14.1901 32.62 11.0701 32.62C8.75011 32.62 5.92011 32.26 2.57011 31.55L0.970108 31.24L1.5901 26.48C5.5701 27.01 8.61011 27.28 10.7201 27.28C13.8701 27.28 15.4401 25.97 15.4401 23.36C15.4401 22.41 15.0801 21.67 14.3501 21.13C13.6201 20.6 12.1801 20.02 10.0101 19.39C6.5701 18.41 4.1401 17.25 2.7301 15.89C1.3201 14.54 0.610107 12.66 0.610107 10.26C0.610107 7.22998 1.5301 4.97998 3.3701 3.48998C5.2101 1.99998 7.73011 1.25998 10.9401 1.25998C13.1401 1.25998 15.9301 1.55998 19.3101 2.14998L20.9101 2.45998L20.4201 7.30998C16.2301 6.83998 13.2801 6.59998 11.5601 6.59998V6.61998Z" fill="white"/>
<path d="M34.2701 9.28997C35.8101 9.28997 37.7901 9.52997 40.1901 9.99997L41.3901 10.27L41.2101 14.99C38.8601 14.75 37.1301 14.63 36.0001 14.63C33.9501 14.63 32.5901 15.07 31.9301 15.94C31.2601 16.82 30.9301 18.47 30.9301 20.9C30.9301 23.33 31.2601 25 31.9301 25.91C32.6001 26.82 33.9701 27.27 36.0501 27.27L41.2201 26.91L41.4001 31.67C38.2201 32.29 35.8001 32.61 34.1401 32.61C30.8501 32.61 28.4801 31.68 27.0401 29.83C25.6001 27.98 24.8801 25 24.8801 20.9C24.8801 16.8 25.6201 13.84 27.1101 12.02C28.5901 10.19 30.9801 9.27997 34.2801 9.27997L34.2701 9.28997Z" fill="white"/>
<path d="M45.8 32.09V9.82999H51.72V12.19C54.21 10.71 56.59 9.73999 58.84 9.29999V15.31C56.44 15.81 54.37 16.33 52.65 16.87L51.76 17.18V32.1H45.79L45.8 32.09Z" fill="white"/>
<path d="M62.3601 6.97998V0.919983H68.3301V6.97998H62.3601ZM62.3601 32.09V9.82999H68.3301V32.09H62.3601Z" fill="white"/>
<path d="M74.3901 1.81H86.2801C89.4301 1.81 91.7901 2.44 93.3601 3.7C94.9301 4.96 95.7201 7 95.7201 9.82C95.7201 11.51 95.4701 12.86 94.9601 13.85C94.4601 14.85 93.5901 15.73 92.3801 16.5C93.7201 17.06 94.7001 17.88 95.3401 18.95C95.9801 20.02 96.3001 21.5 96.3001 23.4C96.3001 26.34 95.4401 28.52 93.7201 29.95C92.0001 31.37 89.5801 32.09 86.4601 32.09H74.3901V1.81ZM85.9701 7.06H80.5401V14.27H86.0201C88.3401 14.27 89.4901 13.07 89.4901 10.66C89.4901 8.25 88.3201 7.05 85.9701 7.05V7.06ZM86.1501 19.44H80.5401V26.83H86.1501C87.4901 26.83 88.4701 26.56 89.1101 26.03C89.7501 25.5 90.0701 24.52 90.0701 23.09C90.0701 20.66 88.7601 19.44 86.1501 19.44Z" fill="#42D8E9"/>
<path d="M106.96 26.46C107.66 27.07 108.66 27.37 109.97 27.37C112.73 27.37 115.19 27.28 117.36 27.1L118.61 26.97L118.7 31.38C115.29 32.21 112.2 32.63 109.44 32.63C106.09 32.63 103.65 31.74 102.14 29.96C100.63 28.18 99.8701 25.28 99.8701 21.28C99.8701 13.29 103.15 9.29999 109.71 9.29999C116.27 9.29999 119.42 12.65 119.42 19.36L118.97 23.5H105.88C105.91 24.87 106.27 25.85 106.97 26.46H106.96ZM113.53 18.96C113.53 17.18 113.25 15.94 112.68 15.24C112.12 14.54 111.13 14.19 109.72 14.19C108.31 14.19 107.32 14.55 106.74 15.28C106.16 16.01 105.86 17.23 105.83 18.95H113.53V18.96Z" fill="#42D8E9"/>
</svg>
