<svg width="43" height="43" viewBox="0 0 43 43" fill="none" xmlns="http://www.w3.org/2000/svg">
<path d="M21.31 41.62C32.5269 41.62 41.62 32.5269 41.62 21.31C41.62 10.0931 32.5269 1 21.31 1C10.0931 1 1 10.0931 1 21.31C1 32.5269 10.0931 41.62 21.31 41.62Z" stroke="#353535" stroke-width="2" stroke-linejoin="round"/>
<path d="M21.31 25.89C20.76 25.89 20.31 25.44 20.31 24.89V23.4C20.31 23.29 20.33 23.19 20.36 23.08C20.64 22.22 21.22 21.6 22.13 21.18C22.63 20.95 23.3 20.76 23.75 20.64C23.9 20.6 24.03 20.56 24.14 20.53C24.79 20.33 25.17 20.14 25.42 19.88C25.73 19.57 25.88 19.07 25.88 18.34C25.88 17.45 25.69 16.68 25.33 16.06C24.64 14.89 23.29 14.3 21.33 14.3C20.25 14.3 19.34 14.52 18.63 14.94C18.09 15.26 17.66 15.72 17.34 16.3C17.05 16.84 16.91 17.38 16.84 17.73C16.8 17.93 16.78 18.1 16.78 18.21V18.34C16.77 18.9 16.32 19.35 15.77 19.35C15.22 19.35 14.77 18.9 14.77 18.35C14.77 18.35 14.77 18.14 14.78 18.06C14.79 17.89 14.82 17.66 14.87 17.39C15 16.66 15.25 15.97 15.59 15.35C16.08 14.46 16.76 13.75 17.6 13.24C18.62 12.62 19.88 12.31 21.33 12.31C24.01 12.31 25.99 13.26 27.06 15.05C27.44 15.69 27.9 16.78 27.9 18.34C27.9 19.6 27.55 20.59 26.87 21.29C26.24 21.94 25.44 22.25 24.74 22.46C24.47 22.54 24.26 22.6 24.07 22.65C23.62 22.77 23.32 22.86 23 23C22.87 23.06 22.78 23.11 22.72 23.15L22.34 23.4V24.89C22.34 25.44 21.89 25.89 21.34 25.89H21.31Z" fill="#353535"/>
<path d="M21.31 33.13C20.6 33.13 20.02 32.55 20.02 31.84C20.02 31.13 20.6 30.55 21.31 30.55C22.02 30.55 22.6 31.13 22.6 31.84C22.6 32.55 22.02 33.13 21.31 33.13Z" fill="#353535"/>
</svg>
