<svg width="43" height="43" viewBox="0 0 43 43" fill="none" xmlns="http://www.w3.org/2000/svg">
<g clip-path="url(#clip0_27_22)">
<path d="M21.3101 31.55C20.7101 31.55 20.2201 31.06 20.2201 30.46V22.41H12.1701C11.5701 22.41 11.0801 21.92 11.0801 21.32C11.0801 20.72 11.5701 20.23 12.1701 20.23H20.2201V12.17C20.2201 11.57 20.7101 11.08 21.3101 11.08C21.9101 11.08 22.4001 11.57 22.4001 12.17V20.22H30.4501C31.0501 20.22 31.5401 20.71 31.5401 21.31C31.5401 21.91 31.0501 22.4 30.4501 22.4H22.4001V30.45C22.4001 31.05 21.9101 31.54 21.3101 31.54V31.55Z" fill="#9E9EAF"/>
<path d="M21.31 41.62C32.5269 41.62 41.62 32.5269 41.62 21.31C41.62 10.0931 32.5269 1 21.31 1C10.0931 1 1 10.0931 1 21.31C1 32.5269 10.0931 41.62 21.31 41.62Z" stroke="#9E9EAF" stroke-width="2" stroke-linejoin="round"/>
</g>
<defs>
<clipPath id="clip0_27_22">
<rect width="42.63" height="42.63" fill="white"/>
</clipPath>
</defs>
</svg>
