<svg width="49" height="39" viewBox="0 0 49 39" fill="none" xmlns="http://www.w3.org/2000/svg">
<g clip-path="url(#clip0_19_37)">
<path d="M31.33 27.05C31.8 26.98 32.25 27.3 32.32 27.78C32.39 28.25 32.07 28.7 31.59 28.77L28.11 29.3C27.66 29.37 27.24 29.08 27.13 28.65L26.26 25.08C26.15 24.61 26.43 24.14 26.9 24.03C27.37 23.92 27.84 24.2 27.95 24.67L28.36 26.36C30.06 24.02 29.89 20.79 27.86 18.77C25.61 16.52 21.88 16.55 19.53 18.91C17.18 21.27 17.15 24.99 19.39 27.24C19.73 27.58 19.73 28.13 19.39 28.47C19.05 28.81 18.5 28.81 18.16 28.47C15.2 25.51 15.3 20.68 18.3 17.68C21.3 14.68 26.13 14.59 29.09 17.54C31.73 20.18 31.94 24.3 29.83 27.29L31.32 27.06L31.33 27.05Z" fill="#9E9EAF"/>
<path d="M44.45 37.7H3.88C2.29 37.7 1 36.41 1 34.82V3.88C1 2.29 2.29 1 3.88 1H15.52C16.48 1 17.38 1.48 17.92 2.28L21.73 7.99C21.84 8.15 22.02 8.25 22.21 8.25H44.46C46.05 8.25 47.34 9.54 47.34 11.13V34.81C47.34 36.4 46.05 37.69 44.46 37.69L44.45 37.7Z" stroke="#9E9EAF" stroke-width="2" stroke-linejoin="round"/>
<path d="M6.22998 1H24.87C25.74 1 26.55 1.43 27.04 2.14L31.32 8.36" stroke="#9E9EAF" stroke-width="2" stroke-linejoin="round"/>
</g>
<defs>
<clipPath id="clip0_19_37">
<rect width="48.33" height="38.7" fill="white"/>
</clipPath>
</defs>
</svg>
