<svg width="39" height="39" viewBox="0 0 39 39" fill="none" xmlns="http://www.w3.org/2000/svg">
<path fill-rule="evenodd" clip-rule="evenodd" d="M7.03276 38.32C5.38276 38.32 4.04276 36.98 4.04276 35.33V15.69L1.60276 17.86C1.42276 18.02 1.20276 18.1 0.962762 18.1C0.682762 18.1 0.422762 17.98 0.242762 17.78C-0.107238 17.38 -0.077238 16.77 0.322762 16.42L18.5228 0.24C18.7028 0.08 18.9328 0 19.1628 0C19.3928 0 19.6228 0.09 19.8028 0.24L38.0028 16.41C38.4028 16.76 38.4328 17.37 38.0828 17.77C37.8928 17.98 37.6428 18.09 37.3628 18.09C37.1228 18.09 36.9028 18 36.7228 17.85L34.2828 15.68V35.32C34.2828 36.97 32.9428 38.31 31.2928 38.31H7.03276V38.32ZM21.1828 18.19C22.8328 18.19 24.1728 19.53 24.1728 21.18V36.39H32.3528V13.98L19.1628 2.25L5.97276 13.98V36.4H14.1528V21.19C14.1528 19.54 15.4928 18.2 17.1428 18.2H21.1828V18.19ZM16.0828 36.39H22.2428V20.12H16.0828V36.39Z" fill="#353535"/>
</svg>
