<svg width="40" height="39" viewBox="0 0 40 39" fill="none" xmlns="http://www.w3.org/2000/svg">
<path fill-rule="evenodd" clip-rule="evenodd" d="M8.03008 38.32C6.38008 38.32 5.04008 36.98 5.04008 35.33V15.69L2.60008 17.86C2.42008 18.02 2.20008 18.1 1.96008 18.1C1.68008 18.1 1.42008 17.98 1.24008 17.78C0.890076 17.38 0.920076 16.77 1.32008 16.42L19.5201 0.24C19.7001 0.08 19.9301 0 20.1601 0C20.3901 0 20.6201 0.09 20.8001 0.24L39.0001 16.41C39.4001 16.76 39.4301 17.37 39.0801 17.77C38.8901 17.98 38.6401 18.09 38.3601 18.09C38.1201 18.09 37.9001 18 37.7201 17.85L35.2801 15.68V35.32C35.2801 36.97 33.9401 38.31 32.2901 38.31H8.03008V38.32ZM22.1801 18.19C23.8301 18.19 25.1701 19.53 25.1701 21.18V36.39H33.3501V13.98L20.1601 2.25L6.97008 13.98V36.4H15.1501V21.19C15.1501 19.54 16.4901 18.2 18.1401 18.2H22.1801V18.19ZM17.0801 36.39H23.2401V20.12H17.0801V36.39Z" fill="#9E9EAF"/>
</svg>
