<svg width="49" height="48" viewBox="0 0 49 48" fill="none" xmlns="http://www.w3.org/2000/svg">
<path d="M31.33 27.75C31.8 27.68 32.25 28 32.32 28.48C32.39 28.95 32.07 29.4 31.59 29.47L28.11 30C27.66 30.07 27.24 29.78 27.13 29.35L26.26 25.78C26.15 25.31 26.43 24.84 26.9 24.73C27.37 24.62 27.84 24.9 27.95 25.37L28.36 27.06C30.06 24.72 29.89 21.49 27.86 19.47C25.61 17.22 21.88 17.25 19.53 19.61C17.18 21.97 17.15 25.69 19.39 27.94C19.73 28.28 19.73 28.83 19.39 29.17C19.05 29.51 18.5 29.51 18.16 29.17C15.2 26.21 15.3 21.38 18.3 18.38C21.3 15.38 26.13 15.29 29.09 18.24C31.73 20.88 31.94 25 29.83 27.99L31.32 27.76L31.33 27.75Z" fill="#353535"/>
<path d="M44.45 38.4H3.88C2.29 38.4 1 37.11 1 35.52V4.58001C1 2.99001 2.29 1.70001 3.88 1.70001H15.52C16.48 1.70001 17.38 2.18001 17.92 2.98001L21.73 8.69001C21.84 8.85001 22.02 8.95001 22.21 8.95001H44.46C46.05 8.95001 47.34 10.24 47.34 11.83V35.51C47.34 37.1 46.05 38.39 44.46 38.39L44.45 38.4Z" stroke="#353535" stroke-width="2" stroke-linejoin="round"/>
<path d="M6.22998 1.70001H24.87C25.74 1.70001 26.55 2.13001 27.04 2.84001L31.32 9.06001" stroke="#353535" stroke-width="2" stroke-linejoin="round"/>
<path d="M14.36 45C13.61 45 13 45.61 13 46.35C13 47.09 13.61 47.71 14.36 47.71H33.34C34.09 47.71 34.7 47.1 34.7 46.35C34.7 45.6 34.09 45 33.34 45H14.36Z" fill="#42D8E9"/>
</svg>
