<svg width="75" height="75" viewBox="0 0 75 75" fill="none" xmlns="http://www.w3.org/2000/svg">
<path d="M40.625 15.625C40.625 13.8991 39.2259 12.5 37.5 12.5C35.7741 12.5 34.375 13.8991 34.375 15.625V34.375H15.625C13.8991 34.375 12.5 35.7741 12.5 37.5C12.5 39.2259 13.8991 40.625 15.625 40.625H34.375V59.375C34.375 61.1009 35.7741 62.5 37.5 62.5C39.2259 62.5 40.625 61.1009 40.625 59.375V40.625H59.375C61.1009 40.625 62.5 39.2259 62.5 37.5C62.5 35.7741 61.1009 34.375 59.375 34.375H40.625V15.625Z" fill="#1E202C"/>
</svg>
