<svg width="42" height="42" viewBox="0 0 42 42" fill="none" xmlns="http://www.w3.org/2000/svg">
<path d="M36.4849 28.7829C37.4403 28.6367 38.3333 29.2925 38.4796 30.2479C38.6259 31.2033 37.97 32.0963 37.0146 32.2426L30.0149 33.3144C29.1175 33.4518 28.2641 32.8802 28.0496 31.998L26.2995 24.8015C26.0711 23.8624 26.6473 22.9159 27.5865 22.6875C28.5256 22.4592 29.472 23.0353 29.7004 23.9745L30.5265 27.3715C33.9575 22.6569 33.5979 16.1618 29.5246 12.0885C25.0011 7.56499 17.4911 7.62135 12.7494 12.363C8.00781 17.1046 7.95145 24.6146 12.4749 29.1381C13.1584 29.8215 13.1584 30.9295 12.4749 31.613C11.7915 32.2964 10.6835 32.2964 10.0001 31.613C4.04368 25.6566 4.23311 15.9295 10.2746 9.8881C16.316 3.84665 26.043 3.65722 31.9994 9.6136C37.3066 14.9208 37.7347 23.2214 33.4915 29.2413L36.4849 28.7829Z" fill="black" fill-opacity="0.62"/>
</svg>
