<svg width="20" height="17" viewBox="0 0 20 17" fill="none" xmlns="http://www.w3.org/2000/svg">
<path d="M18.6729 14.2448C19.2512 14.1562 19.7918 14.5532 19.8803 15.1315C19.9689 15.7098 19.5719 16.2504 18.9936 16.3389L14.7566 16.9877C14.2134 17.0709 13.6968 16.7248 13.5669 16.1909L12.5076 11.8348C12.3694 11.2663 12.7181 10.6934 13.2866 10.5551C13.8551 10.4169 14.428 10.7657 14.5662 11.3341L15.0663 13.3904C17.1431 10.5366 16.9254 6.60506 14.4598 4.13942C11.7216 1.4013 7.17576 1.43541 4.3056 4.30557C1.43544 7.17573 1.40133 11.7216 4.13944 14.4597C4.55312 14.8734 4.55312 15.5441 4.13944 15.9578C3.72576 16.3715 3.05505 16.3715 2.64137 15.9578C-0.964092 12.3523 -0.849426 6.46446 2.80753 2.8075C6.46449 -0.849451 12.3524 -0.964119 15.9578 2.64135C19.1703 5.85383 19.4294 10.8783 16.861 14.5222L18.6729 14.2448Z" fill="#1E202C"/>
</svg>
