<svg width="36" height="36" viewBox="0 0 36 36" fill="none" xmlns="http://www.w3.org/2000/svg">
<path fill-rule="evenodd" clip-rule="evenodd" d="M16.8041 0.454663C17.4861 -0.151554 18.5139 -0.151554 19.1959 0.454663L35.3958 14.8547C36.1388 15.5151 36.2058 16.6528 35.5453 17.3959C34.8849 18.1389 33.7471 18.2058 33.0041 17.5453L32.4 17.0083V32.4C32.4 34.3882 30.7882 36 28.8 36H7.20001C5.21179 36 3.60002 34.3882 3.60002 32.4V17.0083L2.99587 17.5453C2.25286 18.2058 1.11513 18.1389 0.454682 17.3959C-0.20577 16.6528 -0.138844 15.5151 0.604164 14.8547L16.8041 0.454663ZM7.20001 13.8083V32.4H12.6V19.8C12.6 17.8118 14.2118 16.2 16.2 16.2H19.8C21.7882 16.2 23.4 17.8118 23.4 19.8V32.4H28.8V13.8083L18 4.20832L7.20001 13.8083ZM19.8 32.4V19.8H16.2V32.4H19.8Z" fill="black" fill-opacity="0.62"/>
</svg>
