<svg width="36" height="36" viewBox="0 0 36 36" fill="none" xmlns="http://www.w3.org/2000/svg">
<path d="M19.8 19.2518C19.8358 19.2278 19.887 19.1994 19.9609 19.1652C20.2137 19.0482 20.4483 18.984 20.8018 18.8873C21.0022 18.8324 21.2408 18.7672 21.5425 18.6759C22.2181 18.4715 23.1935 18.127 23.9699 17.325C24.8093 16.4581 25.2 15.2971 25.2 13.9L25.2 13.8821C25.2002 13.465 25.2011 11.833 24.2729 10.2689C23.2352 8.52017 21.2562 7.2 18 7.2C16.3687 7.2 15.0247 7.57324 13.9464 8.2255C12.8715 8.87578 12.1604 9.74292 11.6985 10.5813C11.2421 11.4095 11.0223 12.2192 10.914 12.8092C10.8591 13.108 10.8308 13.3615 10.8161 13.5482C10.8087 13.6419 10.8047 13.7196 10.8025 13.7789C10.8014 13.8086 10.8008 13.8337 10.8004 13.854L10.8001 13.8807L10.8 13.8913L10.8 13.8959L10.8 13.898L10.8 13.9C10.8 14.8941 11.6059 15.7 12.6 15.7C13.5886 15.7 14.3911 14.9029 14.3999 13.9164L14.3999 13.9122C14.4004 13.8997 14.4018 13.871 14.405 13.8307C14.4114 13.7494 14.4252 13.6201 14.4547 13.4595C14.5151 13.1308 14.6328 12.7155 14.8515 12.3187C15.0645 11.9321 15.366 11.5742 15.8098 11.3057C16.2503 11.0393 16.9312 10.8 18 10.8C20.1438 10.8 20.8647 11.5798 21.177 12.1061C21.585 12.7936 21.6 13.5862 21.6 13.9C21.6 14.5976 21.4254 14.7777 21.3844 14.82C21.2823 14.9255 21.0674 15.0585 20.5001 15.2301C20.4075 15.2581 20.2874 15.2911 20.1489 15.3292C19.676 15.4594 18.9885 15.6485 18.4496 15.8978C17.6065 16.2878 16.7081 16.9732 16.291 18.235C16.2307 18.4173 16.2 18.608 16.2 18.8L16.2 20.2495C16.2 21.2436 17.0059 22.05 18 22.05C18.9941 22.05 19.8 21.2441 19.8 20.25L19.8 19.2518Z" fill="black" fill-opacity="0.62"/>
<path d="M18 28.8C18.9941 28.8 19.8 27.9941 19.8 27C19.8 26.0059 18.9941 25.2 18 25.2C17.0059 25.2 16.2 26.0059 16.2 27C16.2 27.9941 17.0059 28.8 18 28.8Z" fill="black" fill-opacity="0.62"/>
<path fill-rule="evenodd" clip-rule="evenodd" d="M18 36C27.9411 36 36 27.9411 36 18C36 8.05887 27.9411 0 18 0C8.05887 0 0 8.05887 0 18C0 27.9411 8.05887 36 18 36ZM18 32.4C25.9529 32.4 32.4 25.9529 32.4 18C32.4 10.0471 25.9529 3.6 18 3.6C10.0471 3.6 3.6 10.0471 3.6 18C3.6 25.9529 10.0471 32.4 18 32.4Z" fill="black" fill-opacity="0.62"/>
</svg>
