<svg width="66" height="66" viewBox="0 0 66 66" fill="none" xmlns="http://www.w3.org/2000/svg">
<path d="M57.3335 45.2303C58.8348 45.0004 60.2382 46.0311 60.4681 47.5324C60.6979 49.0337 59.6672 50.4371 58.1659 50.667L47.1664 52.3511C45.7562 52.5671 44.4151 51.6688 44.078 50.2826L41.3279 38.9738C40.9691 37.498 41.8745 36.0107 43.3503 35.6518C44.826 35.293 46.3133 36.1984 46.6722 37.6742L47.9703 43.0123C53.362 35.6037 52.7968 25.3971 46.3958 18.9962C39.2875 11.8878 27.4861 11.9764 20.0349 19.4275C12.5838 26.8786 12.4953 38.6801 19.6036 45.7884C20.6775 46.8624 20.6775 48.6036 19.6036 49.6775C18.5296 50.7514 16.7884 50.7514 15.7145 49.6775C6.35446 40.3175 6.65214 25.0321 16.1458 15.5384C25.6396 6.04471 40.9249 5.74702 50.2849 15.1071C58.6248 23.4469 59.2974 36.4907 52.6296 45.9506L57.3335 45.2303Z" fill="#1E202C"/>
</svg>
