<svg width="32" height="34" viewBox="0 0 32 34" fill="none" xmlns="http://www.w3.org/2000/svg">
<path fill-rule="evenodd" clip-rule="evenodd" d="M0 5.23077C0 2.34189 2.20414 0 4.92308 0H27.0769C29.7959 0 32 2.3419 32 5.23077V28.7692C32 31.6581 29.7959 34 27.0769 34H4.92308C2.20414 34 0 31.6581 0 28.7692V5.23077ZM4.92308 3.26923H27.0769C28.0965 3.26923 28.9231 4.14744 28.9231 5.23077V28.7692C28.9231 29.8526 28.0965 30.7308 27.0769 30.7308H4.92308C3.90347 30.7308 3.07692 29.8526 3.07692 28.7692V5.23077C3.07692 4.14744 3.90347 3.26923 4.92308 3.26923Z" fill="#1E202C"/>
</svg>
