<svg width="29" height="37" viewBox="0 0 29 37" fill="none" xmlns="http://www.w3.org/2000/svg">
<path fill-rule="evenodd" clip-rule="evenodd" d="M0 5.69231C0 2.54853 2.16396 0 4.83333 0H7.25C9.91938 0 12.0833 2.54853 12.0833 5.69231V31.3077C12.0833 34.4515 9.91938 37 7.25 37H4.83333C2.16396 37 0 34.4515 0 31.3077V5.69231ZM4.83333 3.55769H7.25C8.25102 3.55769 9.0625 4.51339 9.0625 5.69231V31.3077C9.0625 32.4866 8.25102 33.4423 7.25 33.4423H4.83333C3.83232 33.4423 3.02083 32.4866 3.02083 31.3077V5.69231C3.02083 4.51339 3.83232 3.55769 4.83333 3.55769Z" fill="#1E202C"/>
<path fill-rule="evenodd" clip-rule="evenodd" d="M16.9167 5.69231C16.9167 2.54853 19.0806 0 21.75 0H24.1667C26.836 0 29 2.54853 29 5.69231V31.3077C29 34.4515 26.836 37 24.1667 37H21.75C19.0806 37 16.9167 34.4515 16.9167 31.3077V5.69231ZM21.75 3.55769H24.1667C25.1677 3.55769 25.9792 4.51339 25.9792 5.69231V31.3077C25.9792 32.4866 25.1677 33.4423 24.1667 33.4423H21.75C20.749 33.4423 19.9375 32.4866 19.9375 31.3077V5.69231C19.9375 4.51339 20.749 3.55769 21.75 3.55769Z" fill="#1E202C"/>
</svg>
